<?xml version="1.0" standalone="no"?>
<!DOCTYPE svg PUBLIC "-//W3C//DTD SVG 20010904//EN"
 "http://www.w3.org/TR/2001/REC-SVG-20010904/DTD/svg10.dtd">
<svg version="1.0" xmlns="http://www.w3.org/2000/svg"
 width="338.000000pt" height="338.000000pt" viewBox="130 0 340 338.000000"
 preserveAspectRatio="xMidYMid meet">
<g transform="translate(0.000000,338.000000) scale(0.100000,-0.100000)"
fill="#000000" stroke="none">
<path d="M2976 2884 c4 -10 4 -16 0 -13 -11 10 -76 -52 -69 -65 4 -6 0 -5 -9
2 -13 10 -18 10 -24 1 -4 -8 -3 -9 4 -5 7 4 12 2 12 -3 0 -6 -12 -11 -26 -11
-19 0 -25 -4 -21 -14 4 -10 1 -13 -9 -9 -8 3 -14 -1 -14 -11 0 -10 -6 -13 -15
-10 -8 4 -15 1 -15 -6 0 -7 -8 -9 -22 -5 -18 5 -20 4 -8 -4 8 -6 11 -11 5 -12
-5 -1 -23 -3 -38 -5 -32 -3 -57 -20 -57 -39 0 -16 -38 -50 -47 -42 -3 4 -1 7
6 7 7 0 9 5 5 11 -9 16 -24 -10 -16 -29 3 -10 1 -13 -6 -8 -7 4 -12 1 -12 -9
0 -9 -4 -13 -10 -10 -5 3 -15 -15 -21 -40 -7 -26 -18 -49 -26 -52 -12 -5 -12
-7 -2 -14 8 -5 -1 -7 -23 -6 -20 1 -34 5 -32 9 2 3 -22 5 -53 3 -32 -1 -59 -8
-61 -14 -2 -6 -8 -11 -13 -11 -6 0 -8 4 -5 9 3 5 -5 8 -18 7 -15 0 -21 -5 -16
-11 10 -12 -39 -14 -57 -2 -13 8 -17 -3 -14 -30 1 -7 -3 -13 -9 -13 -5 0 -10
-5 -10 -11 0 -5 5 -7 12 -3 7 4 8 3 4 -5 -4 -6 -11 -9 -16 -6 -5 3 -11 1 -15
-5 -4 -7 -12 -7 -25 0 -21 11 -38 -4 -19 -16 8 -5 9 -3 4 6 -6 9 -4 11 4 6 13
-8 9 -18 -6 -17 -4 0 -27 -11 -50 -24 -24 -15 -49 -22 -60 -19 -15 5 -16 4 -3
-6 12 -9 10 -10 -12 -6 -16 4 -28 2 -28 -4 0 -5 -17 -10 -37 -11 -29 0 -33 -2
-18 -8 18 -7 18 -8 1 -18 -16 -9 -16 -13 4 -70 21 -62 22 -82 5 -95 -6 -5 -5
-11 3 -17 9 -5 13 -27 12 -62 -4 -119 0 -190 10 -184 5 3 7 0 5 -8 -6 -15 19
-70 28 -61 3 3 4 -6 3 -21 -3 -18 1 -25 10 -21 9 3 11 0 7 -11 -4 -10 -2 -14
4 -10 10 6 23 -13 23 -34 0 -6 -17 -26 -37 -46 -21 -19 -32 -32 -24 -28 8 5
12 4 9 -1 -35 -65 -37 -82 -35 -256 1 -133 -1 -179 -12 -191 -7 -9 -10 -21 -6
-27 3 -5 3 -10 -2 -10 -4 0 -8 -11 -8 -24 0 -13 3 -22 6 -20 4 2 9 -3 13 -11
3 -8 10 -15 16 -15 6 0 8 5 5 10 -9 14 38 3 89 -21 22 -11 46 -19 53 -19 7 0
14 -4 14 -10 1 -5 2 -14 3 -19 0 -5 5 -13 10 -18 5 -4 6 -3 2 4 -4 7 2 17 14
23 24 13 18 32 -7 23 -12 -5 -14 -3 -8 7 5 8 4 11 -3 6 -6 -3 -16 0 -24 7 -7
8 -19 12 -27 9 -9 -3 -11 0 -6 8 5 8 4 11 -3 6 -13 -8 -64 3 -58 13 2 3 -13 5
-35 3 -22 -3 -39 0 -39 6 0 22 13 42 23 35 6 -4 45 -18 87 -33 41 -14 111 -49
156 -78 155 -100 233 -106 333 -26 42 33 42 33 19 45 -13 6 -33 21 -46 32 -20
18 -24 19 -33 7 -8 -13 -9 -13 -7 1 2 9 -16 35 -40 58 -41 40 -60 52 -46 29 4
-7 3 -8 -5 -4 -6 4 -9 12 -5 17 8 14 -26 50 -39 42 -6 -3 -7 -1 -3 6 4 6 -6
32 -23 59 -39 62 -86 182 -102 260 -7 39 -10 107 -6 185 5 127 23 201 73 299
18 36 22 52 15 70 -6 13 -11 17 -12 11 -1 -7 -2 -17 -3 -22 0 -5 -4 -13 -8
-17 -5 -4 -8 -15 -8 -25 0 -9 -7 -19 -15 -23 -8 -3 -15 -16 -15 -30 0 -14 -5
-28 -11 -32 -6 -3 -9 -15 -6 -25 3 -11 1 -17 -4 -13 -5 3 -9 -4 -9 -16 0 -12
-5 -30 -10 -41 -6 -10 -12 -44 -13 -74 -1 -34 -7 -57 -15 -60 -8 -3 -10 0 -6
7 5 7 0 9 -14 6 -12 -4 -22 -3 -22 2 0 4 -9 10 -20 13 -11 3 -23 13 -27 23 -4
10 -13 25 -20 34 -7 8 -13 17 -12 20 0 3 -5 18 -11 34 -8 22 -7 32 2 44 11 13
11 14 -1 8 -10 -7 -12 -4 -7 12 4 11 7 58 6 104 0 108 -2 118 -13 118 -5 0 -6
8 -2 18 4 9 7 27 6 40 0 16 7 25 27 33 15 5 47 20 72 32 25 12 49 20 53 19 5
-1 6 1 4 5 -3 5 17 23 45 41 28 19 47 28 43 20 -3 -7 -1 -6 7 3 14 17 48 33
62 30 5 -1 16 1 25 5 22 10 90 11 84 2 -2 -5 6 -8 18 -8 12 0 31 -10 43 -23
19 -21 20 -25 6 -38 -17 -18 -51 -33 -65 -30 -5 1 -3 -5 6 -14 15 -15 22 -13
95 36 133 89 310 137 464 124 137 -12 287 -64 377 -131 32 -24 48 -31 39 -16
-3 5 1 9 9 9 11 0 12 -4 4 -13 -7 -8 -7 -14 1 -19 9 -6 14 1 11 18 0 4 5 7 11
7 9 0 8 3 -2 9 -8 6 -17 8 -21 6 -3 -3 -17 7 -29 20 -19 20 -20 25 -7 25 10 0
14 6 11 14 -11 30 128 44 186 18 22 -9 40 -20 40 -24 0 -4 7 -5 15 -1 9 3 15
2 14 -3 -3 -19 1 -35 9 -30 11 7 132 -52 132 -64 0 -6 9 -10 19 -10 11 0 23
-5 26 -10 4 -6 14 -9 23 -8 14 2 17 -5 16 -36 -2 -39 -1 -39 13 -15 10 16 12
17 7 4 -11 -33 -20 -107 -16 -150 2 -22 5 -69 8 -104 4 -36 2 -61 -3 -58 -5 3
-7 -9 -5 -27 3 -24 -3 -40 -22 -63 -14 -17 -23 -33 -20 -35 3 -3 -7 -9 -21
-12 -14 -4 -23 -10 -21 -15 3 -5 -6 -8 -21 -8 -15 0 -29 -6 -31 -12 -2 -6 -8
-11 -13 -11 -6 0 -8 4 -5 9 3 5 0 13 -7 19 -10 9 -13 -1 -14 -44 -1 -30 3 -54
9 -54 5 0 6 5 3 10 -6 10 6 14 35 11 13 -2 13 -1 0 8 -11 8 -4 10 28 7 45 -4
97 -40 85 -59 -3 -6 -1 -7 5 -3 7 4 20 -10 34 -36 21 -40 23 -55 23 -230 0
-102 4 -181 8 -175 5 7 6 -2 3 -20 -3 -18 -1 -35 4 -38 5 -3 7 0 4 8 -3 8 -1
17 3 20 5 3 10 -7 11 -22 2 -26 -1 -29 -43 -34 -24 -4 -75 -21 -112 -39 -83
-39 -92 -43 -73 -28 13 10 13 11 0 7 -8 -2 -15 -10 -15 -17 0 -7 -5 -15 -12
-17 -12 -4 -12 14 0 34 4 6 2 15 -4 19 -8 4 -9 3 -5 -5 5 -7 -4 -13 -24 -18
-19 -3 -27 -9 -20 -13 8 -5 7 -9 -4 -13 -9 -4 -16 -1 -16 5 0 6 -9 1 -19 -11
-12 -14 -25 -20 -32 -15 -8 4 -9 3 -5 -4 10 -16 -7 -15 -23 0 -11 10 -12 10
-7 1 9 -17 -114 -9 -124 8 -4 6 -10 10 -14 10 -27 -4 -34 1 -31 24 3 27 34 57
49 48 5 -4 6 -2 3 3 -3 5 10 20 29 33 19 13 34 28 34 33 0 5 4 6 10 3 6 -4 7
1 3 11 -5 14 -2 16 16 11 18 -4 20 -3 10 9 -6 8 -7 14 -2 14 5 0 15 11 22 24
9 16 20 22 37 20 13 -1 22 2 19 6 -3 5 -13 6 -23 3 -12 -5 -8 3 11 27 21 25
25 35 15 41 -7 5 -16 3 -20 -4 -4 -6 -2 -15 5 -19 8 -5 7 -8 -4 -8 -9 0 -30
-21 -47 -48 -36 -57 -84 -102 -172 -162 -144 -100 -316 -146 -483 -131 -102
10 -221 41 -280 74 -48 27 -59 16 -65 -61 -7 -104 37 -162 183 -238 97 -50
145 -82 186 -126 l26 -27 39 41 c21 23 33 38 27 34 -9 -5 -11 -2 -6 10 4 12 3
15 -5 10 -7 -4 -12 -15 -12 -24 0 -15 -2 -15 -10 -2 -8 13 -10 12 -10 -2 0
-10 -8 -18 -17 -18 -15 0 -16 -2 -3 -10 11 -7 11 -10 2 -10 -7 0 -16 10 -21
22 -5 13 -12 23 -17 23 -5 0 -8 9 -7 20 1 11 -1 14 -3 8 -3 -7 -10 -13 -15
-13 -6 0 -7 4 -4 10 3 5 0 7 -8 4 -8 -3 -20 2 -27 10 -7 9 -16 13 -21 10 -5
-3 -9 -1 -9 5 0 5 -9 13 -20 16 -11 4 -18 11 -15 16 4 5 -3 9 -14 9 -11 0 -22
4 -26 10 -3 5 -12 7 -20 3 -8 -3 -15 -1 -15 4 0 5 -16 15 -36 22 -25 9 -34 17
-30 28 4 11 2 13 -9 9 -15 -5 -22 9 -7 17 4 2 1 2 -5 1 -21 -5 -47 57 -46 109
1 63 11 72 54 50 19 -10 45 -19 59 -21 14 -2 37 -15 53 -29 15 -15 27 -22 27
-16 0 6 -3 13 -7 16 -5 2 -1 1 7 -1 8 -3 25 -5 37 -5 13 1 21 -2 19 -6 -2 -3
44 -4 102 -2 59 2 130 4 159 4 28 1 50 4 47 8 -5 8 20 19 44 19 9 0 38 11 63
23 60 31 79 38 78 29 -3 -16 14 -73 24 -79 6 -4 7 4 2 23 -12 50 -16 84 -9 84
3 0 22 -13 40 -30 63 -55 160 -63 245 -19 41 21 69 20 30 -1 -12 -6 -19 -16
-15 -22 4 -6 -2 -8 -17 -3 -20 5 -21 4 -9 -5 12 -10 11 -11 -8 -7 -12 3 -20 1
-16 -4 3 -5 -10 -10 -28 -11 -77 -4 -142 7 -163 28 -13 14 -15 13 -15 -9 0
-41 -12 -87 -21 -81 -5 3 -6 -3 -2 -12 5 -12 3 -15 -6 -9 -10 6 -11 3 -1 -15
7 -12 8 -20 2 -16 -5 3 -20 -7 -33 -23 -31 -36 -135 -103 -164 -105 -13 0 -21
-5 -18 -10 3 -5 0 -6 -8 -4 -24 9 -48 -10 -44 -33 3 -12 7 -24 11 -28 4 -3 4
2 1 11 -7 21 3 23 22 5 9 -8 12 -8 7 0 -3 6 7 21 24 33 16 12 30 18 30 14 0
-4 8 0 18 8 9 8 26 18 37 22 17 5 16 3 -5 -15 l-25 -21 28 16 c15 9 33 14 40
9 8 -4 7 -1 -2 10 -12 15 -11 17 5 18 11 1 24 0 29 -1 6 -1 7 1 3 5 -4 4 4 19
17 33 13 14 22 29 19 33 -5 9 17 6 36 -6 13 -8 13 -7 1 8 -11 14 -11 20 -1 32
7 8 8 15 3 15 -6 0 -4 18 4 44 l15 44 40 -14 c54 -19 83 -18 145 5 29 10 55
16 58 12 4 -3 13 2 20 13 9 11 20 16 30 12 9 -3 14 -2 11 3 -9 14 34 53 47 42
8 -6 19 -4 32 6 16 13 17 15 3 10 -10 -4 -18 -3 -18 1 0 12 60 31 78 25 15 -4
15 -3 2 6 -8 6 -10 11 -5 12 10 1 23 4 40 9 6 1 15 3 20 4 6 1 27 7 47 14 26
9 36 19 35 33 -1 10 -5 19 -10 19 -4 0 -5 5 -2 10 4 6 0 21 -7 33 -11 16 -14
58 -13 162 0 81 -4 157 -11 181 -9 29 -9 46 -1 60 10 18 9 18 -8 4 -17 -14
-18 -13 -12 2 3 10 2 20 -4 23 -5 4 -6 12 -3 18 4 7 4 9 0 5 -5 -4 -18 3 -30
15 -26 26 -31 61 -8 52 12 -4 12 -2 4 8 -7 8 -9 17 -5 20 3 4 1 7 -6 7 -7 0
-9 5 -5 11 4 8 12 2 21 -15 12 -22 33 -28 33 -10 0 3 -4 2 -10 -1 -5 -3 -10
-1 -10 4 0 18 5 26 13 23 4 -1 7 3 6 10 -3 25 1 39 10 33 5 -3 13 0 17 6 4 8
3 9 -4 5 -7 -4 -12 -3 -12 3 0 5 5 13 11 16 6 4 8 14 5 22 -3 8 -3 20 1 26 4
7 9 80 10 162 4 209 4 200 13 186 5 -8 10 1 15 25 4 22 12 42 18 46 7 5 2 8
-13 8 -20 0 -22 2 -10 11 12 9 11 10 -7 6 -17 -4 -23 -1 -23 11 0 13 -2 14 -9
4 -9 -16 -60 -7 -77 14 -9 12 -47 24 -81 26 -10 1 -10 4 0 16 11 13 9 14 -13
2 -22 -12 -24 -12 -12 2 9 11 10 18 2 23 -5 3 -10 1 -10 -4 0 -6 -5 -11 -11
-11 -5 0 -8 4 -5 9 8 12 -14 29 -60 45 -23 8 -39 20 -39 29 0 8 -4 19 -9 24
-5 4 -6 3 -2 -4 4 -8 -5 -11 -33 -10 -21 1 -37 5 -34 10 6 10 -71 9 -101 -2
-17 -7 -26 -7 -30 2 -3 9 -5 9 -5 0 -2 -24 -21 -13 -21 11 0 14 -5 28 -11 31
-6 4 -8 13 -5 21 3 8 1 14 -5 14 -6 0 -8 7 -5 16 3 8 2 13 -3 10 -5 -3 -12 1
-15 10 -8 22 -8 26 4 19 6 -3 7 1 3 10 -5 13 -7 14 -14 3 -8 -11 -13 -5 -11
13 1 4 -4 6 -11 6 -19 -1 -97 35 -97 45 0 5 -6 6 -12 2 -10 -6 -10 -5 -1 7 10
12 8 15 -8 16 -11 1 -17 -2 -14 -7 3 -6 -1 -7 -10 -4 -8 4 -20 15 -26 25 -5
11 -20 19 -32 19 -12 0 -32 12 -44 27 -13 14 -23 21 -23 14 0 -7 -5 -9 -10 -6
-6 4 -8 10 -5 15 3 4 -2 10 -10 14 -8 3 -15 13 -15 21 0 9 -5 13 -10 10 -6 -3
-15 6 -20 20 -9 23 -13 25 -25 15 -12 -10 -18 -10 -30 0 -13 11 -14 10 -9 -6z
m80 -71 c39 -38 97 -77 163 -112 56 -29 119 -69 139 -90 20 -20 39 -35 42 -34
3 1 7 -6 8 -15 1 -9 4 -45 8 -79 l6 -62 29 21 c35 26 122 35 175 18 22 -7 80
-39 129 -71 93 -59 179 -99 218 -99 43 0 51 -14 30 -51 -15 -29 -18 -57 -18
-204 0 -102 -2 -148 -6 -115 -6 48 -6 46 -4 -20 2 -58 -2 -84 -17 -113 -11
-22 -22 -37 -24 -34 -3 3 4 20 15 38 12 19 21 41 21 48 0 8 -12 -9 -26 -37
-27 -55 -57 -81 -70 -60 -4 6 -3 8 3 5 12 -8 34 15 59 63 16 30 19 61 20 200
1 116 6 179 16 211 l15 47 -40 5 c-46 6 -160 60 -197 93 -39 35 -117 72 -166
80 -56 8 -121 -15 -165 -58 -34 -35 -44 -33 -29 6 26 69 -1 158 -62 212 -20
18 -82 56 -139 85 -56 30 -122 73 -146 96 l-43 43 -44 -44 c-27 -26 -89 -66
-154 -100 -119 -60 -159 -97 -187 -169 -15 -41 -17 -101 -4 -132 2 -5 0 -11
-5 -12 -5 -1 -13 -7 -18 -15 -6 -9 -7 -6 -3 8 5 19 -2 26 -47 48 -93 47 -160
35 -298 -54 -51 -33 -124 -70 -160 -82 l-67 -21 14 -45 c9 -31 13 -95 12 -192
0 -115 3 -155 16 -188 20 -49 93 -118 136 -127 39 -9 37 -21 -6 -29 -46 -9
-103 -60 -126 -112 -16 -35 -18 -65 -16 -205 1 -122 -2 -172 -12 -197 -22 -53
-34 -24 -20 53 7 42 9 104 5 160 -11 154 21 247 101 296 l33 21 -41 30 c-27
19 -50 48 -67 86 -26 54 -27 63 -24 197 2 131 -6 195 -32 256 -6 14 3 19 46
29 64 15 154 58 217 104 105 75 203 89 311 42 12 -5 15 3 16 38 2 54 39 122
86 158 18 14 76 47 128 74 66 33 112 66 150 105 30 30 55 56 55 57 0 1 28 -24
61 -55z m-36 -33 c6 -11 15 -18 20 -15 6 4 7 -1 3 -11 -4 -12 -3 -15 5 -10 7
4 12 2 12 -3 0 -6 7 -11 15 -11 8 0 15 -3 15 -8 0 -4 10 -12 23 -17 12 -6 21
-16 20 -23 -2 -7 4 -9 14 -5 12 5 14 3 8 -7 -6 -10 -2 -12 19 -8 14 3 29 1 32
-4 4 -5 25 -18 48 -28 28 -12 55 -35 78 -66 47 -66 54 -79 38 -69 -10 6 -12 4
-7 -9 15 -40 18 -64 8 -71 -6 -3 -9 -10 -7 -14 3 -3 -4 -7 -14 -7 -10 0 -16 5
-13 10 4 5 -1 7 -10 3 -10 -3 -17 -3 -17 2 0 9 -85 36 -107 34 -7 0 -10 3 -7
8 5 9 -23 14 -59 11 -11 -1 -15 2 -11 9 5 9 -9 10 -50 7 -37 -3 -52 -1 -44 5
9 6 8 7 -5 3 -48 -16 -70 -18 -64 -9 7 11 -21 7 -83 -11 -20 -6 -22 -5 -10 4
12 10 12 11 -5 5 -55 -20 -92 -28 -110 -26 -14 1 -16 -1 -7 -7 8 -6 -4 -13
-37 -22 -28 -7 -48 -17 -46 -21 6 -8 -25 -22 -33 -14 -3 3 1 5 8 5 9 0 7 5 -6
16 -10 8 -12 13 -4 9 10 -4 9 -2 -2 8 -14 11 -16 20 -8 46 10 35 10 36 10 52
0 5 5 7 12 3 7 -4 8 -3 4 4 -8 13 34 59 49 54 5 -2 7 0 3 4 -10 9 11 36 23 29
4 -3 18 4 29 15 12 12 28 19 36 16 8 -3 14 1 14 10 0 8 5 12 10 9 6 -3 10 0
10 7 0 9 3 9 10 -2 8 -12 10 -12 10 5 0 17 2 17 10 5 9 -13 14 -7 11 12 0 4 7
4 17 1 9 -3 14 -3 10 2 -9 10 40 37 53 29 5 -3 9 0 9 6 0 14 41 70 52 70 4 0
12 -9 18 -20z m361 -157 c13 -16 12 -17 -3 -4 -17 13 -22 21 -14 21 2 0 10 -8
17 -17z m-1106 -173 c3 -6 -1 -7 -9 -4 -18 7 -21 14 -7 14 6 0 13 -4 16 -10z
m1632 -736 c0 -10 -5 -10 -20 -2 -14 7 -17 7 -13 -1 4 -5 -2 -15 -13 -20 -29
-16 -38 -13 -15 4 17 14 15 14 -20 0 -44 -17 -56 -19 -56 -7 0 10 86 39 116
39 11 0 21 -5 21 -13z m-1693 -134 c0 -27 4 -46 9 -43 4 2 7 -7 7 -21 0 -14 5
-26 11 -26 7 0 9 -10 7 -25 -3 -13 -1 -22 3 -19 13 8 11 -10 -3 -24 -9 -9 -5
-19 20 -45 23 -24 31 -39 26 -53 -5 -16 -4 -16 5 -4 6 8 11 12 12 8 1 -5 2
-11 3 -15 4 -20 63 -112 68 -107 6 6 19 -25 27 -62 0 -4 8 -1 16 6 11 9 15 9
15 1 0 -7 15 -26 33 -43 17 -17 26 -28 20 -24 -9 5 -11 2 -7 -8 3 -8 14 -13
24 -11 10 2 28 -7 40 -20 13 -14 28 -21 34 -18 6 4 5 -1 -3 -10 -7 -9 -18 -14
-23 -11 -5 3 -17 -1 -26 -9 -9 -8 -42 -17 -72 -19 -30 -1 -58 -7 -62 -13 -5
-6 -8 -5 -8 3 0 6 -9 12 -20 12 -11 0 -36 8 -55 18 -27 15 -32 22 -22 32 10
10 8 11 -9 6 -13 -4 -26 -1 -34 9 -7 8 -16 13 -20 10 -5 -3 -11 4 -15 14 -4
12 -12 18 -21 14 -10 -4 -12 0 -8 11 3 9 1 16 -5 16 -6 0 -11 -6 -11 -12 0 -9
-4 -8 -10 2 -5 8 -10 11 -10 6 0 -5 -9 -1 -20 9 -12 11 -20 13 -20 6 0 -7 -5
-9 -10 -6 -6 4 -8 10 -5 15 3 4 -3 7 -12 6 -10 0 -21 10 -27 26 -8 22 -6 32
10 50 14 16 14 19 2 10 -15 -12 -16 -10 -6 24 5 21 8 54 5 74 -2 20 0 45 5 55
8 13 7 16 -1 11 -7 -5 -10 11 -9 54 1 33 5 55 9 49 4 -7 6 3 4 21 -1 19 7 50
19 72 16 31 25 39 42 35 13 -2 20 1 18 7 -2 6 6 16 18 21 30 14 40 -2 42 -65z
m66 -192 c0 -6 -7 -5 -15 2 -8 7 -15 17 -15 22 0 6 7 5 15 -2 8 -7 15 -17 15
-22z m1466 -402 c0 -14 -5 -22 -12 -19 -7 2 -15 0 -19 -6 -3 -6 -11 -11 -18
-11 -6 0 -2 6 9 14 10 8 20 19 20 25 2 19 4 21 12 21 4 0 8 -11 8 -24z m-1257
-20 c-12 -10 -60 -16 -54 -6 3 5 18 10 32 10 15 0 24 -2 22 -4z m678 -320 c0
-8 -6 -12 -15 -9 -11 5 -11 7 0 14 7 5 13 9 14 9 0 0 1 -6 1 -14z"/>
<path d="M2990 2780 c0 -5 5 -10 10 -10 6 0 10 5 10 10 0 6 -4 10 -10 10 -5 0
-10 -4 -10 -10z"/>
<path d="M3271 2607 c2 -1 13 -9 24 -17 19 -14 19 -14 6 3 -7 9 -18 17 -24 17
-6 0 -8 -1 -6 -3z"/>
<path d="M2790 2480 c12 -8 12 -10 1 -10 -8 0 -12 -2 -9 -5 3 -3 13 -2 22 1
14 5 15 9 4 15 -7 5 -17 9 -23 9 -5 0 -3 -5 5 -10z"/>
<path d="M3210 2466 c0 -2 7 -7 16 -10 8 -3 12 -2 9 4 -6 10 -25 14 -25 6z"/>
<path d="M2270 1050 c-8 -5 -10 -10 -5 -10 6 0 17 5 25 10 8 5 11 10 5 10 -5
0 -17 -5 -25 -10z"/>
<path d="M3295 2700 c3 -5 8 -10 11 -10 2 0 4 5 4 10 0 6 -5 10 -11 10 -5 0
-7 -4 -4 -10z"/>
<path d="M3730 2466 c0 -2 7 -7 16 -10 8 -3 12 -2 9 4 -6 10 -25 14 -25 6z"/>
<path d="M2905 2434 c-79 -13 -158 -39 -244 -80 -80 -39 -107 -59 -186 -139
-80 -79 -100 -106 -139 -186 -94 -196 -108 -372 -46 -573 47 -149 191 -327
330 -409 84 -49 205 -87 305 -96 375 -35 705 197 797 561 17 68 19 102 15 207
-2 69 -10 142 -17 161 -7 19 -24 64 -37 100 -58 156 -192 300 -347 375 -50 24
-118 51 -151 60 -62 16 -227 27 -280 19z m147 -39 c73 -7 148 -35 217 -80 34
-23 58 -32 64 -26 6 6 1 13 -12 21 -12 6 -19 15 -16 20 3 5 -7 11 -22 13 l-28
4 30 1 c35 1 91 -30 87 -48 -2 -8 3 -10 13 -7 8 4 15 2 15 -4 0 -6 5 -7 10 -4
13 8 8 -18 -5 -27 -12 -10 -31 -10 -22 -1 10 9 -31 35 -44 27 -7 -4 6 -24 34
-53 156 -162 200 -352 131 -561 -22 -65 -68 -133 -129 -188 -50 -46 -129 -92
-158 -92 -7 0 -18 -5 -25 -12 -7 -7 -49 -12 -114 -12 -98 -1 -107 1 -178 35
-91 43 -133 78 -175 144 -100 157 -83 350 40 464 137 126 311 127 437 4 162
-159 63 -433 -157 -433 -69 0 -128 31 -170 90 -26 36 -30 51 -30 104 0 72 16
102 77 146 66 48 139 39 198 -25 35 -37 36 -129 2 -174 -31 -42 -11 -39 27 4
25 29 31 44 31 83 -1 104 -82 177 -188 169 -166 -12 -239 -214 -125 -346 47
-55 102 -80 174 -81 77 0 136 23 186 72 108 106 115 275 17 395 -46 56 -97 88
-173 109 -149 42 -324 -45 -402 -199 -77 -151 -47 -394 69 -570 32 -48 49 -34
22 18 -37 73 -18 85 55 35 135 -93 313 -104 462 -30 71 36 135 88 127 102 -4
6 -2 8 4 4 27 -16 123 143 147 245 36 155 -4 332 -106 461 -30 38 -35 53 -20
62 14 9 95 -69 147 -139 26 -35 52 -61 57 -58 6 3 7 2 4 -4 -4 -6 3 -34 14
-64 11 -30 23 -62 26 -71 3 -10 8 -16 12 -14 7 5 9 -16 17 -181 5 -104 3 -134
-16 -210 -23 -92 -72 -197 -115 -247 -14 -16 -25 -32 -25 -35 0 -19 -134 -135
-188 -162 -38 -18 -55 -21 -111 -15 -64 5 -111 17 -156 36 -11 5 -36 15 -55
23 -19 8 -65 37 -102 65 -37 27 -70 47 -73 44 -4 -4 -5 -2 -3 3 5 16 -75 106
-85 96 -12 -12 19 -56 75 -107 94 -84 137 -111 248 -154 49 -20 66 -31 68 -48
3 -16 -3 -23 -25 -29 -44 -12 -253 -8 -303 6 -263 72 -441 240 -527 496 -24
71 -27 95 -27 210 1 113 4 140 27 210 38 114 90 198 182 291 83 83 179 145
280 179 55 18 156 33 195 29 14 -2 51 -6 82 -9z m228 -30 c0 -7 -39 -12 -49
-5 -7 4 1 7 18 8 17 0 31 -1 31 -3z m447 -577 c-3 -8 -6 -5 -6 6 -1 11 2 17 5
13 3 -3 4 -12 1 -19z m-1054 -215 c-4 -11 -3 -14 5 -9 7 4 12 2 12 -3 0 -6 -5
-11 -11 -11 -8 0 -7 -5 1 -15 11 -13 15 -13 22 -3 6 9 7 5 3 -9 -5 -18 -3 -22
8 -17 10 3 18 -3 22 -17 5 -15 10 -18 15 -9 5 8 9 7 13 -5 4 -9 3 -14 -3 -10
-6 3 -13 -1 -16 -9 -11 -30 -45 -10 -49 28 -2 15 -9 34 -16 42 -15 18 -20 44
-13 56 9 14 14 9 7 -9z m52 -143 c3 -5 1 -10 -4 -10 -6 0 -11 5 -11 10 0 6 2
10 4 10 3 0 8 -4 11 -10z m485 -399 c0 -5 -6 -11 -12 -14 -7 -2 3 -3 22 -2 46
4 48 5 25 15 -14 6 -16 9 -4 9 8 1 24 -6 35 -15 10 -8 13 -13 6 -9 -7 4 -19 1
-27 -5 -8 -7 -21 -10 -29 -7 -8 3 -16 2 -18 -3 -2 -5 -9 -6 -17 -1 -8 5 -11
16 -8 25 7 17 27 22 27 7z"/>
<path d="M2875 2379 c-167 -28 -334 -133 -441 -279 -150 -204 -177 -486 -67
-705 40 -80 65 -117 111 -169 29 -33 35 -36 50 -24 15 11 16 11 4 -3 -11 -15
-7 -22 30 -54 95 -83 298 -155 436 -155 80 0 152 11 152 22 0 6 -7 7 -16 4 -8
-3 -13 -2 -10 2 3 5 -12 14 -32 21 -130 44 -260 144 -350 271 -26 36 -47 69
-48 75 -1 5 -12 31 -23 57 -61 135 -80 335 -42 444 25 70 75 140 132 183 24
18 44 37 44 41 0 5 4 12 9 17 5 5 6 3 2 -4 -10 -17 -7 -17 50 8 60 27 178 29
243 5 24 -9 47 -13 52 -10 5 3 9 2 8 -3 -1 -4 27 -38 63 -75 47 -48 71 -81 82
-115 19 -59 22 -148 7 -186 -6 -16 -9 -32 -6 -37 3 -4 -2 -13 -10 -20 -8 -7
-15 -16 -15 -21 0 -5 -24 -33 -53 -62 -37 -37 -66 -56 -102 -67 -128 -37 -255
13 -312 123 -115 225 149 448 323 273 46 -45 61 -96 49 -165 -6 -38 -47 -89
-76 -95 -8 -2 -22 -6 -32 -11 -32 -13 -29 2 7 50 58 76 48 163 -24 200 -111
57 -231 -47 -206 -180 8 -39 55 -99 95 -119 99 -51 240 5 288 113 24 55 21
148 -6 204 -43 89 -153 158 -250 157 -72 -1 -217 -69 -207 -97 3 -7 0 -10 -7
-8 -14 6 -58 -55 -79 -110 -52 -133 -19 -265 97 -381 70 -71 142 -103 248
-112 75 -5 202 22 190 41 -3 6 -1 7 5 3 17 -10 90 36 144 90 141 141 177 365
88 550 -79 164 -229 278 -409 310 -85 15 -113 15 -186 3z m120 -20 c-15 -7 -8
-8 27 -6 25 1 44 -1 42 -5 -2 -3 11 -5 31 -4 19 2 32 -1 29 -6 -3 -5 0 -8 8
-6 7 1 28 -8 47 -22 19 -13 31 -18 26 -10 -6 9 -4 11 4 6 7 -5 10 -14 7 -22
-4 -12 -2 -12 14 -4 16 9 20 8 20 -5 0 -10 10 -15 28 -16 15 0 21 -3 15 -6 -7
-2 -13 -9 -13 -14 0 -4 6 -6 13 -3 8 3 20 -2 27 -10 7 -9 16 -14 20 -11 5 3
12 0 16 -6 5 -8 2 -10 -7 -5 -8 4 -3 -1 10 -12 13 -10 30 -32 38 -48 7 -16 11
-21 8 -11 -3 10 -1 16 4 13 5 -3 12 -18 16 -33 3 -15 14 -33 23 -40 13 -9 13
-12 3 -13 -11 0 -11 -3 -1 -15 6 -8 8 -20 4 -26 -4 -8 -3 -9 4 -5 7 4 12 1 12
-9 0 -9 4 -13 10 -10 6 4 7 -1 3 -11 -3 -10 -2 -15 3 -12 5 4 10 -6 12 -20 1
-15 5 -51 8 -80 4 -31 2 -58 -5 -65 -5 -7 -12 -34 -14 -59 -2 -26 -11 -54 -21
-63 -9 -9 -14 -21 -10 -26 3 -5 -5 -18 -17 -28 -22 -18 -37 -57 -17 -45 7 4 8
2 4 -4 -12 -20 -39 -15 -31 6 5 14 4 15 -7 4 -11 -11 -10 -16 5 -27 18 -13 17
-14 -2 -20 -12 -4 -18 -11 -15 -17 5 -7 1 -9 -9 -5 -11 4 -14 2 -10 -9 3 -9 0
-14 -8 -12 -8 2 -13 -2 -12 -9 2 -7 -4 -10 -13 -6 -13 5 -13 7 -2 14 9 6 9 9
1 9 -6 0 -15 -5 -18 -10 -4 -6 -10 -8 -15 -5 -4 3 -7 -3 -5 -12 3 -21 -12 -43
-29 -43 -6 0 -4 5 4 10 8 5 11 10 7 10 -5 0 -23 -10 -40 -22 -18 -13 -40 -21
-50 -20 -11 2 -17 0 -14 -5 5 -8 -40 -13 -137 -14 -57 0 -83 12 -69 34 3 5 -5
4 -17 -3 -17 -9 -24 -9 -30 -1 -4 7 -13 11 -20 9 -8 -2 -14 5 -15 16 0 11 -6
20 -13 22 -7 1 -8 0 -2 -3 5 -2 8 -9 5 -14 -4 -5 -12 -3 -19 4 -8 6 -12 15 -9
20 2 4 -3 7 -11 7 -8 0 -21 9 -29 20 -8 11 -18 17 -23 12 -4 -4 -2 2 6 12 11
14 11 18 2 12 -9 -5 -15 -1 -19 13 -3 11 -10 18 -16 14 -6 -4 -7 -1 -2 6 4 8
-1 18 -14 27 -12 9 -19 19 -16 24 3 5 0 21 -6 37 -13 35 -22 118 -9 88 9 -20
9 -20 9 1 1 11 -3 24 -9 30 -11 11 13 89 35 111 8 8 15 21 15 29 0 8 5 14 10
14 6 0 10 7 10 15 0 8 5 15 11 15 5 0 7 -6 3 -12 -4 -8 -3 -10 2 -5 5 5 9 14
9 20 1 7 7 11 14 9 9 -2 11 3 7 13 -5 13 -1 15 14 10 11 -4 20 -3 19 2 -3 17
1 36 7 30 8 -7 64 13 64 23 0 4 9 6 20 3 11 -3 17 -10 14 -17 -3 -6 1 -3 9 7
11 13 22 15 48 10 19 -3 36 -10 39 -14 3 -4 22 -9 42 -11 27 -1 34 -6 30 -17
-3 -9 -1 -12 6 -7 10 6 17 -6 10 -16 -4 -7 24 -48 33 -48 6 0 3 8 -7 17 -11
11 -13 18 -5 21 6 2 8 9 4 15 -4 7 1 6 11 -2 12 -10 14 -16 5 -22 -8 -4 -4 -9
10 -14 11 -3 21 -13 21 -20 0 -8 8 -22 18 -32 14 -14 17 -30 15 -68 -5 -94 -8
-113 -17 -112 -5 1 -11 -4 -14 -12 -3 -9 0 -11 9 -6 8 5 3 -4 -10 -18 -13 -15
-33 -29 -43 -33 -10 -3 -16 -9 -13 -14 3 -5 0 -12 -6 -16 -8 -5 -9 -3 -4 6 5
8 3 11 -6 8 -8 -3 -13 -11 -11 -17 1 -7 -2 -10 -8 -6 -5 3 -19 1 -31 -6 -15
-8 -19 -8 -15 0 4 6 2 11 -4 11 -6 0 -8 5 -4 12 6 9 9 9 11 1 3 -7 11 -9 19
-6 7 3 11 9 8 14 -5 8 9 13 28 10 21 -3 86 86 83 112 -2 9 1 14 7 11 12 -8 1
55 -13 72 -5 6 -6 14 -2 17 3 4 -2 16 -12 27 -10 11 -15 20 -11 20 4 0 -6 12
-23 26 -17 14 -31 31 -31 38 0 6 -10 13 -22 13 -13 1 -28 9 -34 18 -11 15 -29
22 -20 7 3 -5 -23 -7 -57 -4 -48 2 -59 1 -47 -8 13 -10 12 -11 -4 -6 -12 4
-35 -6 -67 -29 -34 -25 -47 -29 -43 -17 2 9 -5 -3 -16 -28 -12 -24 -25 -47
-29 -50 -4 -3 -8 -12 -8 -20 -1 -8 -3 -26 -7 -40 -3 -14 -8 -38 -11 -55 -4
-28 -4 -29 5 -5 8 20 9 17 5 -17 -3 -26 -1 -43 5 -43 5 0 10 -9 10 -19 0 -11
7 -27 16 -35 8 -9 12 -20 9 -26 -4 -6 -3 -9 2 -8 5 2 26 -12 48 -31 22 -18 33
-30 25 -26 -8 5 -11 4 -7 0 4 -5 13 -10 20 -11 7 -1 32 -10 57 -19 69 -25 166
-19 209 13 19 14 31 19 27 11 -4 -8 -1 -6 7 4 9 11 22 15 33 11 13 -4 15 -3 6
3 -10 8 -9 13 4 24 10 8 15 9 11 3 -4 -7 -1 -14 7 -17 11 -5 13 0 6 24 -5 16
-5 27 -1 25 4 -3 20 6 37 20 16 14 23 23 17 19 -15 -7 -17 6 -4 21 8 9 41 106
41 121 0 4 -4 2 -9 -5 -5 -8 -7 6 -6 35 2 26 -1 58 -6 71 -6 15 -5 21 1 17 6
-3 10 -1 10 4 0 6 -4 11 -9 11 -4 0 -21 19 -36 41 -15 23 -21 38 -13 34 7 -3
4 1 -6 9 -11 9 -16 16 -11 16 5 0 0 6 -10 14 -11 8 -16 20 -12 29 4 12 1 15
-15 12 -11 -3 -30 2 -42 10 -14 11 -16 15 -6 15 8 1 0 7 -19 15 -18 8 -38 12
-45 9 -6 -3 -3 1 6 9 17 13 16 14 -10 15 -15 1 -61 3 -102 5 -45 3 -86 -1
-105 -8 -16 -7 -36 -10 -44 -7 -9 3 -11 0 -6 -8 5 -9 2 -10 -15 -5 -17 5 -21
4 -15 -6 6 -9 4 -11 -8 -6 -8 3 -25 -3 -38 -14 -12 -10 -28 -19 -36 -19 -8 0
-11 -5 -8 -11 4 -6 0 -9 -10 -7 -10 2 -20 -4 -22 -12 -4 -13 -3 -13 7 0 10 13
11 13 7 0 -2 -8 -11 -14 -19 -12 -10 1 -15 -4 -14 -15 1 -12 -6 -18 -21 -17
-12 0 -20 -3 -17 -8 3 -4 1 -8 -4 -8 -5 0 -9 -7 -9 -16 0 -15 1 -15 12 0 7 9
15 16 19 16 4 0 -6 -17 -23 -37 -16 -20 -28 -40 -25 -44 3 -5 -5 -18 -16 -29
-12 -12 -19 -28 -16 -37 4 -11 2 -13 -9 -9 -19 7 -19 1 1 -18 8 -9 11 -16 6
-16 -11 0 -9 -141 3 -159 5 -10 4 -12 -3 -7 -14 8 -4 -56 10 -65 5 -3 6 -13 2
-22 -3 -10 -1 -17 5 -17 7 0 11 -6 9 -12 -3 -19 23 -90 40 -107 10 -10 11 -16
3 -19 -6 -2 -11 -8 -11 -13 0 -5 3 -8 8 -6 4 1 8 -1 9 -6 2 -4 14 -20 28 -35
14 -15 23 -33 20 -40 -3 -7 -1 -11 4 -7 5 3 20 -9 32 -27 12 -18 45 -55 73
-83 28 -27 49 -54 48 -58 -1 -5 2 -6 6 -3 5 3 21 -5 36 -17 15 -13 60 -40 101
-61 79 -40 92 -51 49 -40 -21 5 -25 4 -19 -6 5 -8 4 -11 -3 -6 -6 3 -39 7 -74
7 -35 1 -71 6 -82 11 -14 8 -17 7 -11 -2 5 -8 3 -11 -5 -8 -21 7 -24 28 -3 29
11 0 13 3 5 6 -7 3 -19 0 -27 -7 -11 -9 -18 -9 -30 4 -22 21 -31 21 -14 -1 13
-15 12 -15 -8 -5 -12 7 -25 17 -28 22 -3 6 -17 10 -31 10 -14 0 -23 4 -19 9 3
5 0 13 -6 17 -8 4 -9 3 -5 -4 5 -8 -1 -12 -14 -12 -14 0 -19 4 -14 12 5 7 2 9
-8 6 -11 -5 -14 0 -12 18 1 13 -2 22 -7 18 -5 -3 -7 -9 -4 -14 6 -9 -10 -7
-37 5 -10 4 -16 11 -13 16 3 4 -8 15 -24 23 -17 9 -28 23 -27 33 0 12 -6 18
-19 18 -11 0 -25 10 -31 23 -6 13 -15 23 -20 23 -5 0 -9 9 -8 19 0 15 -2 17
-13 9 -10 -9 -13 -8 -13 3 0 19 -23 68 -32 68 -12 0 -39 72 -33 87 2 8 1 12
-4 8 -9 -5 -18 19 -36 85 -10 38 -17 262 -8 257 4 -3 9 9 10 25 1 17 7 36 14
44 6 7 8 17 5 22 -3 5 4 29 16 53 24 49 23 45 33 77 6 18 10 21 17 10 7 -9 8
-7 5 9 -3 15 3 30 19 45 13 13 24 29 24 36 0 7 5 10 10 7 6 -3 10 -1 10 4 0
16 42 61 51 55 4 -2 11 1 15 7 5 8 3 9 -7 4 -12 -8 -12 -6 0 8 8 10 16 15 19
12 3 -2 12 4 21 14 9 10 33 26 53 36 21 9 35 21 32 26 -7 12 3 11 29 -3 20
-10 21 -10 8 5 -12 15 -11 17 2 17 9 0 40 11 70 24 36 16 73 23 116 24 35 0
66 3 69 6 3 4 15 6 26 5 21 0 21 -1 1 -10z m90 -307 c-3 -3 -11 0 -18 7 -9 10
-8 11 6 5 10 -3 15 -9 12 -12z m8 -190 c27 -26 36 -65 16 -77 -6 -4 -8 -13 -5
-21 6 -15 -6 -19 -18 -7 -3 4 -12 8 -19 9 -15 2 -20 -33 -6 -41 5 -3 6 0 3 8
-3 8 -1 18 4 21 6 3 12 -1 15 -8 7 -18 -18 -40 -34 -31 -8 6 -8 2 0 -13 8 -14
8 -23 1 -27 -7 -4 -7 -12 -2 -18 27 -37 -13 -59 -58 -33 -14 8 -40 22 -57 31
-18 10 -31 21 -28 25 3 5 1 11 -5 15 -14 9 -13 135 1 135 6 0 9 6 6 14 -3 8 1
17 9 20 9 3 12 11 8 17 -4 7 -3 9 4 5 6 -3 25 2 43 13 30 18 35 19 63 4 17 -8
43 -27 59 -41z m351 -247 c-4 -8 -11 -15 -16 -15 -6 0 -5 6 2 15 7 8 14 15 16
15 2 0 1 -7 -2 -15z m-130 -146 c-3 -5 -10 -7 -15 -3 -5 3 -7 10 -3 15 3 5 10
7 15 3 5 -3 7 -10 3 -15z"/>
<path d="M3305 2208 c1 -13 6 -21 11 -19 10 3 7 21 -5 34 -4 4 -7 -3 -6 -15z"/>
<path d="M3376 2112 c-3 -5 1 -9 9 -9 8 0 12 4 9 9 -3 4 -7 8 -9 8 -2 0 -6 -4
-9 -8z"/>
<path d="M2870 1994 c-14 -8 -18 -14 -10 -14 8 1 24 7 34 15 24 19 10 18 -24
-1z"/>
<path d="M3200 1905 c7 -9 15 -13 17 -11 7 7 -7 26 -19 26 -6 0 -6 -6 2 -15z"/>
<path d="M3216 1872 c-3 -6 -2 -13 4 -17 5 -3 11 -16 11 -28 1 -14 3 -16 6 -6
5 21 -12 65 -21 51z"/>
<path d="M3471 1754 c0 -11 3 -14 6 -6 3 7 2 16 -1 19 -3 4 -6 -2 -5 -13z"/>
<path d="M3186 1694 c-5 -14 -4 -15 9 -4 17 14 19 20 6 20 -5 0 -12 -7 -15
-16z"/>
<path d="M2786 1607 c3 -10 9 -15 12 -12 3 3 0 11 -7 18 -10 9 -11 8 -5 -6z"/>
<path d="M2760 1601 c0 -6 4 -13 10 -16 6 -3 7 1 4 9 -7 18 -14 21 -14 7z"/>
<path d="M2827 1529 c7 -7 15 -10 18 -7 3 3 -2 9 -12 12 -14 6 -15 5 -6 -5z"/>
<path d="M2885 1450 c-3 -6 1 -7 9 -4 18 7 21 14 7 14 -6 0 -13 -4 -16 -10z"/>
<path d="M2978 1413 c6 -2 18 -2 25 0 6 3 1 5 -13 5 -14 0 -19 -2 -12 -5z"/>
<path d="M3030 1410 c-13 -8 -13 -10 2 -10 9 0 20 5 23 10 8 13 -5 13 -25 0z"/>
<path d="M2698 1113 c7 -3 16 -2 19 1 4 3 -2 6 -13 5 -11 0 -14 -3 -6 -6z"/>
<path d="M2890 1076 c0 -2 7 -7 16 -10 8 -3 12 -2 9 4 -6 10 -25 14 -25 6z"/>
<path d="M2908 1023 c7 -3 16 -2 19 1 4 3 -2 6 -13 5 -11 0 -14 -3 -6 -6z"/>
<path d="M2946 1875 c-11 -8 -15 -15 -9 -15 6 0 16 7 23 15 16 19 11 19 -14 0z"/>
<path d="M2924 1686 c1 -8 5 -18 8 -22 4 -3 5 1 4 10 -1 8 -5 18 -8 22 -4 3
-5 -1 -4 -10z"/>
<path d="M3330 2315 c14 -8 30 -14 35 -14 6 0 -1 6 -15 14 -14 8 -29 14 -35
14 -5 0 1 -6 15 -14z"/>
<path d="M3440 2236 c0 -4 13 -25 29 -45 34 -43 77 -125 87 -163 3 -16 10 -28
14 -28 4 0 6 -62 4 -137 -3 -160 -6 -193 -16 -193 -5 0 -8 -4 -8 -10 0 -18
-34 -90 -43 -90 -4 0 -6 -4 -2 -9 3 -6 -4 -15 -15 -21 -11 -6 -18 -15 -15 -19
13 -23 -185 -174 -230 -176 -5 -1 -20 -7 -33 -13 -35 -20 -172 -26 -234 -12
-73 17 -176 65 -197 91 -10 12 -20 18 -23 13 -8 -12 88 -134 105 -134 6 0 -1
11 -16 25 -15 14 -27 30 -27 35 0 15 7 12 31 -12 12 -13 19 -17 15 -10 -9 16
-1 15 35 -3 16 -9 27 -21 23 -26 -4 -7 2 -6 16 1 17 9 32 9 67 0 29 -9 67 -10
111 -6 37 4 73 8 80 8 6 1 12 5 12 10 0 5 15 8 32 6 24 -2 33 1 33 12 0 8 9
16 20 18 11 2 27 10 35 17 8 8 27 17 43 20 15 4 30 11 33 16 3 5 10 9 15 9 6
0 8 -4 4 -9 -3 -5 -1 -12 4 -15 5 -4 8 1 7 10 -1 8 -9 20 -17 25 -13 8 -6 13
14 10 5 -1 6 3 3 8 -6 9 21 26 36 23 4 -1 4 6 1 15 -5 13 -2 15 12 10 15 -7
16 -5 4 9 -11 14 -10 15 6 12 14 -2 20 3 20 17 0 11 8 31 18 45 9 13 17 33 17
43 0 10 4 16 9 13 19 -12 29 32 35 154 2 41 5 77 6 80 1 3 1 10 0 15 -2 6 -4
36 -5 68 -2 35 -9 65 -18 75 -10 11 -13 23 -8 31 6 10 10 9 16 -6 5 -10 7 -21
7 -25 -1 -5 2 -8 7 -8 5 0 11 -12 13 -27 2 -16 8 -27 16 -26 6 2 12 -5 12 -14
0 -9 3 -13 7 -10 9 10 -25 82 -69 148 -40 60 -137 170 -138 155z"/>
<path d="M3656 1895 c4 -24 3 -27 -6 -15 -8 10 -10 11 -8 2 2 -8 8 -12 13 -10
5 2 15 -26 21 -62 14 -72 18 -194 7 -187 -5 3 -9 -7 -9 -21 -4 -62 -17 -114
-26 -100 -6 8 -7 1 -3 -22 5 -28 4 -32 -5 -20 -10 13 -11 12 -6 -3 3 -9 -5
-32 -19 -53 -14 -20 -21 -42 -18 -51 5 -12 2 -15 -10 -10 -9 3 -16 3 -16 -1 4
-24 -3 -33 -20 -27 -21 6 -38 -10 -21 -20 5 -3 10 -13 10 -21 0 -9 -5 -12 -12
-8 -6 4 -8 3 -5 -3 3 -5 -5 -17 -18 -27 -14 -10 -22 -24 -18 -30 4 -6 -1 -5
-11 3 -9 8 -16 10 -15 5 5 -16 -12 -54 -22 -49 -5 4 -9 2 -9 -2 0 -11 -62 -49
-73 -45 -5 1 -6 -2 -2 -8 3 -5 -3 -10 -14 -10 -12 0 -21 -4 -21 -10 0 -5 -15
-10 -32 -9 -28 0 -30 2 -13 9 15 7 9 9 -25 7 -31 -1 -44 2 -43 10 2 9 -4 10
-20 4 -22 -8 -48 -3 -102 20 -16 7 -32 13 -35 13 -21 4 -99 69 -94 78 5 7 2 8
-5 3 -8 -4 -24 4 -42 21 -16 15 -31 25 -34 22 -6 -5 69 -69 132 -112 62 -41
168 -77 248 -83 68 -5 72 -4 130 34 227 149 352 438 301 701 -9 46 -20 91 -26
100 -8 13 -9 10 -4 -13z m-101 -595 c3 -5 2 -10 -4 -10 -5 0 -13 5 -16 10 -3
6 -2 10 4 10 5 0 13 -4 16 -10z m-358 -206 c-3 -3 -12 -4 -19 -1 -8 3 -5 6 6
6 11 1 17 -2 13 -5z"/>
<path d="M3506 1473 c-6 -14 -5 -15 5 -6 7 7 10 15 7 18 -3 3 -9 -2 -12 -12z"/>
<path d="M2887 1309 c7 -7 15 -10 18 -7 3 3 -2 9 -12 12 -14 6 -15 5 -6 -5z"/>
<path d="M2900 1281 c0 -6 4 -13 10 -16 6 -3 7 1 4 9 -7 18 -14 21 -14 7z"/>
<path d="M1978 2328 c5 -5 16 -8 23 -6 8 3 3 7 -10 11 -17 4 -21 3 -13 -5z"/>
<path d="M3794 2296 c11 -9 27 -16 35 -15 14 0 14 1 1 6 -8 3 -24 10 -35 15
-20 9 -20 9 -1 -6z"/>
<path d="M3503 2289 c-9 -9 0 -23 33 -55 50 -50 130 -155 139 -184 4 -12 11
-17 17 -14 8 5 9 1 5 -10 -4 -11 -3 -15 4 -10 7 4 9 0 5 -12 -7 -23 8 -52 18
-36 7 13 -19 83 -35 93 -9 5 -16 24 -18 52 -1 5 -5 6 -11 2 -5 -3 -17 9 -26
27 -9 18 -21 36 -26 39 -5 3 -10 12 -11 20 -2 8 -6 20 -10 27 -5 6 -5 18 -1
25 6 10 4 10 -7 0 -16 -16 -33 -17 -23 -1 4 6 3 8 -3 5 -12 -8 -46 27 -36 36
3 4 4 7 2 7 -3 0 -10 -5 -16 -11z"/>
<path d="M2465 2270 c-10 -11 -22 -17 -28 -13 -6 3 -7 1 -3 -5 7 -11 -6 -17
-29 -12 -5 1 -5 -4 2 -10 9 -10 4 -19 -18 -41 -16 -15 -29 -35 -29 -44 0 -9
-4 -13 -10 -10 -6 4 -10 -6 -10 -21 0 -31 -1 -32 60 49 23 32 56 69 73 83 19
16 26 29 20 35 -6 6 -16 2 -28 -11z"/>
<path d="M2281 2054 c0 -11 3 -14 6 -6 3 7 2 16 -1 19 -3 4 -6 -2 -5 -13z"/>
<path d="M3751 1800 c0 -8 4 -22 9 -30 12 -18 12 -2 0 25 -6 13 -9 15 -9 5z"/>
<path d="M3855 1770 c-3 -6 1 -7 9 -4 18 7 21 14 7 14 -6 0 -13 -4 -16 -10z"/>
<path d="M3790 1750 c8 -5 20 -10 25 -10 6 0 3 5 -5 10 -8 5 -19 10 -25 10 -5
0 -3 -5 5 -10z"/>
<path d="M2011 1674 c0 -11 3 -14 6 -6 3 7 2 16 -1 19 -3 4 -6 -2 -5 -13z"/>
<path d="M3836 1654 c-9 -8 -16 -21 -16 -27 0 -8 3 -8 8 1 10 14 42 6 42 -11
0 -6 3 -7 7 -4 3 4 -2 17 -13 29 -18 20 -18 21 -1 15 11 -4 16 -3 12 3 -9 14
-21 12 -39 -6z"/>
<path d="M3763 1616 c3 -8 1 -16 -4 -18 -6 -2 -11 -27 -12 -55 -1 -28 -6 -49
-11 -46 -5 4 -6 1 -2 -5 6 -10 -9 -55 -48 -144 -13 -31 -14 -36 -2 -32 8 3 18
19 21 35 4 16 11 29 16 29 5 0 8 3 7 8 -1 4 6 34 16 66 10 33 15 68 12 78 -3
12 0 18 7 15 8 -3 12 10 12 39 1 24 -3 44 -8 44 -5 0 -7 -6 -4 -14z"/>
<path d="M3910 1581 c0 -6 4 -13 10 -16 6 -3 7 1 4 9 -7 18 -14 21 -14 7z"/>
<path d="M3937 1519 c4 -13 8 -18 11 -10 2 7 -1 18 -6 23 -8 8 -9 4 -5 -13z"/>
<path d="M3973 1430 c0 -30 2 -43 4 -27 2 15 2 39 0 55 -2 15 -4 2 -4 -28z"/>
<path d="M3951 1470 c-1 -3 -4 -43 -6 -90 -3 -83 -3 -84 6 -25 8 49 8 133 0
115z"/>
<path d="M3744 1409 c-3 -6 -2 -15 3 -20 5 -5 9 -1 9 11 0 23 -2 24 -12 9z"/>
<path d="M3922 1270 c0 -14 2 -19 5 -12 2 6 2 18 0 25 -3 6 -5 1 -5 -13z"/>
<path d="M3942 1265 c0 -16 2 -22 5 -12 2 9 2 23 0 30 -3 6 -5 -1 -5 -18z"/>
<path d="M3953 1175 c1 -30 -2 -40 -13 -40 -8 0 -19 -6 -23 -13 -5 -7 -13 -10
-18 -7 -5 4 -6 11 -3 17 4 7 2 8 -4 4 -6 -4 -8 -14 -5 -24 5 -15 3 -14 -18 3
-15 13 -19 14 -11 3 9 -11 10 -18 2 -23 -5 -3 -10 -1 -10 4 0 15 -27 14 -36
-1 -5 -8 -2 -9 9 -5 9 3 19 1 23 -6 4 -7 4 -9 -1 -5 -4 4 -17 1 -28 -7 -15
-10 -25 -11 -39 -4 -17 9 -18 8 -9 -10 7 -13 17 -18 28 -14 11 4 14 3 9 -5 -4
-7 7 -5 28 5 23 11 32 19 24 24 -13 8 37 32 91 44 25 5 31 11 25 23 -3 10 -10
31 -15 47 -7 28 -8 27 -6 -10z m-113 -115 c-20 -13 -33 -13 -25 0 3 6 14 10
23 10 15 0 15 -2 2 -10z"/>
<path d="M3506 1072 c-3 -5 1 -9 9 -9 8 0 12 4 9 9 -3 4 -7 8 -9 8 -2 0 -6 -4
-9 -8z"/>
<path d="M3710 1050 c8 -5 20 -10 25 -10 6 0 3 5 -5 10 -8 5 -19 10 -25 10 -5
0 -3 -5 5 -10z"/>
<path d="M2204 1005 c-17 -13 -17 -14 -2 -15 9 0 23 -8 30 -19 7 -10 23 -21
36 -25 12 -4 20 -12 16 -17 -3 -6 -12 -5 -22 3 -15 12 -16 11 -3 -4 10 -13 18
-15 31 -8 22 12 33 13 26 2 -2 -4 3 -8 12 -9 9 -1 31 -5 47 -8 35 -9 124 -13
142 -7 7 2 10 9 7 14 -5 7 -1 7 11 0 18 -10 20 -16 29 -79 5 -40 13 -53 30
-53 8 0 19 -7 26 -15 8 -9 8 -15 2 -15 -6 0 -12 4 -14 9 -1 5 -9 3 -15 -4 -10
-11 -7 -13 20 -12 22 1 31 -2 29 -11 -1 -8 2 -11 7 -8 5 3 11 -4 14 -15 4 -15
12 -20 24 -17 10 3 25 -1 32 -9 7 -8 20 -12 28 -9 9 4 11 2 7 -5 -4 -7 -1 -10
7 -7 19 6 53 -27 44 -44 -6 -10 -5 -11 6 0 16 15 33 16 24 2 -4 -6 7 -15 24
-21 17 -6 31 -15 31 -21 0 -6 6 -8 13 -5 13 5 43 -31 39 -46 -1 -5 2 -6 7 -3
5 3 12 -1 15 -10 3 -8 10 -12 16 -9 5 3 10 2 10 -3 0 -6 9 -8 20 -5 11 3 20 9
20 13 0 4 16 24 35 44 19 21 35 34 35 30 0 -3 7 -1 15 6 18 15 20 33 3 27 -7
-2 -12 -9 -11 -15 2 -6 -3 -9 -10 -6 -14 5 -52 -26 -79 -64 l-16 -24 -38 42
c-47 52 -97 87 -203 141 -131 66 -181 131 -181 231 0 29 -4 48 -8 42 -19 -30
-162 -68 -162 -44 0 6 -11 8 -24 4 -21 -5 -106 28 -106 41 0 3 18 -4 40 -15
21 -11 45 -20 52 -20 7 0 -9 11 -37 24 -38 18 -55 21 -70 13 -17 -9 -18 -8 -8
5 15 18 7 29 -15 21 -10 -4 -13 -2 -8 5 11 18 -9 23 -30 7z m390 -200 c3 -8 1
-15 -3 -15 -5 0 -11 7 -15 15 -3 8 -1 15 3 15 5 0 11 -7 15 -15z m281 -195 c3
-6 -1 -7 -9 -4 -18 7 -21 14 -7 14 6 0 13 -4 16 -10z"/>
<path d="M3379 893 c-1 -5 -1 -12 0 -17 1 -5 -2 -12 -6 -15 -4 -3 -13 -15 -19
-26 -6 -11 -27 -28 -47 -38 -20 -10 -37 -23 -37 -29 0 -17 -29 -40 -41 -32 -8
5 -9 3 -4 -6 6 -10 4 -12 -8 -7 -9 3 -17 1 -19 -5 -2 -6 -13 -12 -24 -12 -10
-1 -34 -13 -53 -26 -18 -14 -37 -24 -42 -23 -5 2 -9 -4 -9 -12 0 -20 6 -19 38
4 15 10 65 38 112 61 117 58 172 113 167 169 -1 21 -6 28 -8 14z m-69 -117 c0
-11 -19 -15 -25 -6 -3 5 1 10 9 10 9 0 16 -2 16 -4z"/>
<path d="M3386 752 c-3 -5 1 -9 9 -9 8 0 12 4 9 9 -3 4 -7 8 -9 8 -2 0 -6 -4
-9 -8z"/>
</g>
</svg>
